# xmcd CD database file
#
# Track frame offsets:
#	150
#	13632
#	26250
#	41562
#	51364
#	64977
#	71797
#	81320
#	90820
#	99268
#	112032
#	121339
#	131325
#	138479
#	155149
#	168866
#	177463
#	189666
#	198355
#	210807
#	225473
#	242735
#	256762
#	273054
#	280823
#	300763
#	308602
#	317290
#	324868
#	340433
#
# Disc length: 4772 seconds
#
# Revision: 1
# Processed by: cddbd v1.5.2PL0 Copyright (c) Steve Scherf et al.
# Submitted via: CDex 1.70beta2
#
DISCID=8a12a21e
DTITLE=Various Artist - 日本の名歌 ベスト・オブ・ベスト　DISC　3
DYEAR=1970
DGENRE=歌謡曲
TTITLE0=椰子の実 - 伊藤　京子
TTITLE1=平城山 - 立川　清登
TTITLE2=初恋 - 中沢　桂
TTITLE3=浜辺の歌 - 中沢　桂
TTITLE4=ちんちん千鳥 - 松本　美和子
TTITLE5=宵待草 - 中沢　桂
TTITLE6=かごかき - 立川　清登
TTITLE7=野の羊 - 立川　清登
TTITLE8=早春賦 - 松本　美和子
TTITLE9=時計台の鐘 - 中沢　桂
TTITLE10=ふるさと - 永田　峰雄
TTITLE11=少年 - 中村　邦子
TTITLE12=口笛 - 斉藤　昌子
TTITLE13=さくら横ちょう　～「二つのロンデル」より  - 伊藤　京子
TTITLE14=沙羅 - 畑中　良輔
TTITLE15=犀川 - 立川　清登
TTITLE16=花林(まるめろ) - 松本　美和子
TTITLE17=しぐれに寄する抒情 - 松本　美和子
TTITLE18=夏の思い出 - 伊藤　京子
TTITLE19=小さい秋見つけた - 本宮　寛子
TTITLE20=悲しくなったときは - 伊藤　京子
TTITLE21=ねむの花 - 松本　美和子
TTITLE22=霧と話した - 松本　美和子
TTITLE23=サルビア - 伊藤　京子
TTITLE24=髪  ＜“マチネ・ポエティク”による四つの歌曲＞ - 伊藤　京子
TTITLE25=むこうむこう - 松本　美和子
TTITLE26=たあんき　ぽーんき  ＜六つの子供の歌＞ - 伊藤　京子
TTITLE27=たんぽぽ - 中村　邦子
TTITLE28=ゆく春 - 伊藤　京子
TTITLE29=雪の降るまちを - 立川　清登
EXTD=YEAR: 1970
EXTT0=
EXTT1=
EXTT2=
EXTT3=
EXTT4=
EXTT5=
EXTT6=
EXTT7=
EXTT8=
EXTT9=
EXTT10=
EXTT11=
EXTT12=
EXTT13=
EXTT14=
EXTT15=
EXTT16=
EXTT17=
EXTT18=
EXTT19=
EXTT20=
EXTT21=
EXTT22=
EXTT23=
EXTT24=
EXTT25=
EXTT26=
EXTT27=
EXTT28=
EXTT29=
PLAYORDER=
